<?xml version="1.0" encoding="UTF-8"?><svg id="a" xmlns="http://www.w3.org/2000/svg" width="199.81mm" height="70mm" xmlns:xlink="http://www.w3.org/1999/xlink" viewBox="0 0 566.39 198.43"><defs><style>.c{fill:#0f978e;stroke:#0f978e;}.c,.d{stroke-miterlimit:10;stroke-width:2.47px;}.d{stroke:#ff6c26;}.d,.e{fill:#ff6c26;}.f{fill:none;}.f,.e{stroke-width:0px;}.g{clip-path:url(#b);}</style><clipPath id="b"><rect class="f" y="1.81" width="180.47" height="194.8"/></clipPath></defs><path class="c" d="m74.66,95.09c0-1.9.16-3.54.41-4.86l-32.8,1.98c-2.64-6.76-8.9-11.12-15.57-11.12-8.49,0-16.48,7.09-16.48,16.48s7.91,16.48,16.48,16.48c6.92,0,13.27-4.7,15.74-11.7,10.47-.66,22.25-1.32,32.71-1.98-.25-1.57-.49-3.3-.49-5.27h0Zm-47.96,8.73c-3.54,0-6.43-2.88-6.43-6.35s2.88-6.35,6.43-6.35,6.43,2.88,6.43,6.35-2.88,6.35-6.43,6.35Z"/><g class="g"><path class="c" d="m119.65,94.93c0-9.97-8.16-18.13-18.13-18.13s-18.13,8.16-18.13,18.13,8.16,18.13,18.13,18.13,18.13-8.16,18.13-18.13h0Zm-45.98-4.78c.74-4.12,2.31-7.99,4.61-11.29l-35.85-36.51c-3.3,1.98-7.17,2.97-11.29,2.8-10.3-.49-18.62-8.82-19.2-19.12-.66-12.03,9.31-22,21.43-21.34,10.3.58,18.54,8.9,19.04,19.2.16,4.12-.82,8.08-2.8,11.29l35.85,36.51c4.53-3.13,10.05-5.03,15.99-5.03,4.94,0,9.64,1.32,13.76,3.54l18.79-23.65c-2.31-3.21-3.63-7.17-3.46-11.45.25-9.89,8.32-18.05,18.21-18.38,10.79-.41,19.69,8.24,19.69,18.95s-8.49,18.95-18.95,18.95c-2.72,0-5.36-.58-7.75-1.65l-18.79,23.73c4.12,4.94,6.67,11.29,6.67,18.21,0,5.77-1.73,11.21-4.78,15.66l18.79,18.62c3.38-2.22,7.42-3.46,11.7-3.54,6.02-.08,11.78,2.14,16.07,6.43,4.2,4.12,6.59,9.64,6.67,15.57.25,12.28-9.64,22.5-21.92,22.74h-.41c-5.85,0-11.45-2.31-15.66-6.43s-6.59-9.64-6.67-15.57c-.08-4.37,1.07-8.41,3.21-11.95l-18.79-18.62c-4.61,3.3-10.3,5.27-16.4,5.27s-11.45-1.81-15.99-4.94l-39.39,39.64c2.55,3.87,3.96,8.57,3.79,13.51-.33,12.28-10.3,22.33-22.58,22.91-13.84.58-25.3-10.8-24.64-24.64.49-12.28,10.55-22.17,22.83-22.58,4.94-.16,9.64,1.24,13.51,3.71l39.39-39.64c-2.22-3.21-3.79-6.84-4.61-10.8-.25-1.4-.49-3.13-.49-5.19,0-1.98.16-3.63.41-4.94h0ZM32.22,14.75c-5.6,0-10.22,4.53-10.22,10.22s4.53,10.14,10.22,10.14,10.22-4.53,10.22-10.14-4.53-10.22-10.22-10.22Zm126.16,21.01c0-4.94-4.04-8.9-8.9-8.9s-8.9,3.96-8.9,8.9,4.04,8.9,8.9,8.9,8.9-4.04,8.9-8.9Zm-2.31,124.68c6.76-.08,12.2-5.69,12.03-12.44-.08-6.67-5.6-12.03-12.28-12.03h-.25c-6.76.08-12.2,5.69-12.03,12.44.16,6.67,5.77,12.11,12.53,12.03h0Zm-129.79,23.65c7.5,0,13.6-6.1,13.6-13.51s-6.1-13.51-13.6-13.51-13.6,6.1-13.6,13.51,6.1,13.51,13.6,13.51Z"/></g><path class="d" d="m83.72,135.97c5.6,2.39,11.54,3.63,17.72,3.63,7.25,0,14.42-1.73,20.85-5.11,2.47-1.32,5.52-.33,6.84,2.14s.33,5.52-2.14,6.76c-7.83,4.12-16.65,6.26-25.55,6.26-7.58,0-14.83-1.48-21.75-4.45-2.55-1.07-3.71-4.04-2.64-6.59,1.15-2.55,4.12-3.71,6.67-2.64h0Zm60.73-53.56c2.55,8.65,2.39,17.72-.41,26.29-.82,2.64.58,5.52,3.21,6.35.49.16,1.07.25,1.57.25,2.14,0,4.12-1.32,4.78-3.46,3.46-10.55,3.63-21.67.49-32.22-.74-2.64-3.54-4.2-6.26-3.38-2.64.74-4.2,3.54-3.38,6.18h0Zm-22.91-33.21c.82-2.64-.58-5.44-3.3-6.35-3.87-1.24-7.91-2.06-12.03-2.39-7.91-.66-15.66.33-23.07,2.88-2.64.91-3.96,3.79-3.05,6.43.74,2.06,2.64,3.38,4.78,3.38.58,0,1.15-.08,1.65-.25,6.02-2.14,12.36-2.97,18.87-2.39,3.38.33,6.67.99,9.81,1.98,2.64.74,5.52-.66,6.35-3.3h0Z"/><path class="e" d="m289.58,53.51c9.2,0,16.7,7.4,16.7,16.6v47.5c0,9.2-7.5,16.6-16.7,16.6h-64V53.51h64Zm-46.6,63.2h45.7v-45.7h-45.7v45.7Z"/><path class="e" d="m419.08,53.51c9.2,0,16.7,7.4,16.7,16.6v64.1h-17.6v-26h-45.7v26h-17.4v-64.1c0-9.2,7.4-16.6,16.6-16.6h47.4Zm-.9,37.2v-19.7h-45.7v19.7h45.7Z"/><path class="e" d="m548.38,53.51c9.1,0,16.6,7.4,16.6,16.6v47.5c0,9.2-7.5,16.6-16.6,16.6h-47.5c-9.2,0-16.6-7.4-16.6-16.6v-47.5c0-9.2,7.4-16.6,16.6-16.6h47.5Zm-46.7,63.2h45.7v-45.7h-45.7v45.7Z"/></svg>