<?xml version="1.0" encoding="UTF-8"?><svg id="a" xmlns="http://www.w3.org/2000/svg" width="964.55" height="255.36" xmlns:xlink="http://www.w3.org/1999/xlink" viewBox="0 0 964.55 255.36"><defs><clipPath id="b"><rect x="61.1" width="193.53" height="254.8" style="fill:none;"/></clipPath></defs><g style="clip-path:url(#b); fill:none;"><path d="m247.76,111.84L142.96,7.04c-8.93-8.93-23.4-8.93-32.33,0l-46.71,46.71c-2.98,2.98-2.98,7.8,0,10.77l11.36,11.36c2.97,2.98,7.8,2.98,10.78,0l35.65-35.65c2.98-2.98,7.8-2.98,10.78,0l82.09,82.08c2.97,2.98,2.97,7.81,0,10.78l-82.09,82.09c-2.98,2.97-7.8,2.97-10.78,0l-35.65-35.65c-2.97-2.98-7.8-2.98-10.77,0l-11.36,11.36c-2.97,2.97-2.97,7.8,0,10.78l47.01,47.01c8.92,8.93,23.4,8.93,32.33,0l104.49-104.49c8.92-8.92,8.92-23.4,0-32.33h0v-.02Z" style="fill:#0f978e;"/></g><path d="m39.9,132.69c-2.85-2.96-2.84-7.64.03-10.59l10.96-11.28c2.93-3.02,2.86-7.85-.16-10.78l-11.29-10.95c-2.99-2.9-7.75-2.87-10.7.08l-22.05,22.05c-8.93,8.92-8.93,23.4,0,32.33l22.22,22.22c2.99,2.99,7.84,2.97,10.81-.03l10.98-11.1c2.91-2.94,2.94-7.66.08-10.64l-10.88-11.32h0Zm42.88-8.97l16.54-16.54c.25-.25.53-.48.83-.68.29-.2.61-.37.94-.51s.67-.24,1.02-.31.7-.11,1.06-.11.71.04,1.06.11.69.17,1.02.31c.33.14.65.3.94.51.3.2.57.43.83.68l16.54,16.54c.25.25.48.53.68.83s.36.61.5.94.24.67.31,1.02.11.7.11,1.06-.04.71-.11,1.06-.17.69-.31,1.02-.3.64-.5.94c-.2.29-.43.57-.68.83l-16.54,16.54c-.25.25-.53.48-.83.68-.29.2-.61.36-.94.5s-.67.24-1.02.31c-.35.07-.7.1-1.06.1s-.71-.04-1.06-.1c-.35-.07-.69-.18-1.02-.31-.33-.14-.65-.3-.94-.5-.3-.2-.57-.43-.83-.68l-16.54-16.54c-.25-.25-.48-.53-.68-.83s-.36-.61-.5-.94-.24-.67-.31-1.02-.11-.71-.11-1.06.04-.71.11-1.06.17-.69.31-1.02.3-.64.5-.94.43-.57.68-.83Z" style="fill:#ff6c26;"/><path d="m319.78,179.91v-98.22h77.91c3.72,0,7.11.91,10.16,2.74,3.05,1.82,5.5,4.25,7.35,7.29,1.87,3.05,2.8,6.43,2.8,10.16v57.84c0,3.65-.93,7.01-2.8,10.1-1.86,3.09-4.31,5.55-7.35,7.37-3.05,1.82-6.43,2.72-10.16,2.72h-77.91Zm21.4-21.4h55.43v-55.43h-55.43v55.43Zm92.39,21.4v-98.22h90.44v21.4h-69.05v17.51h55.43v20.42h-55.43v17.51h69.05v21.4h-90.44v-.02Zm124.25,0c-3.65,0-7.01-.91-10.1-2.73-3.09-1.83-5.55-4.29-7.37-7.39-1.82-3.09-2.72-6.46-2.72-10.11v-57.86c0-3.71.9-7.09,2.71-10.13,1.82-3.04,4.27-5.46,7.35-7.27,3.08-1.82,6.43-2.74,10.07-2.74h57.76c3.74,0,7.12.9,10.17,2.71,3.04,1.8,5.49,4.2,7.35,7.22,1.87,3.02,2.8,6.37,2.8,10.05v9.19h-21.4v-7.78h-55.43v55.43h55.43v-14.59h-21.4v-21.4h42.79v37.15c0,3.65-.93,7.02-2.8,10.11-1.86,3.09-4.31,5.55-7.35,7.39-3.05,1.82-6.44,2.73-10.18,2.73h-57.69v.02Zm93.59,0v-98.22h90.44v21.4h-69.05v17.51h55.43v20.42h-55.43v17.51h69.05v21.4h-90.44v-.02Zm103.09,0v-98.22h21.88l54.95,65.48v-65.48h21.4v98.22h-20.95l-55.88-65.76v65.76h-21.4Z" style="fill:#0f978e;"/><path d="m866.33,179.91v-7.23l35.06-41.87-35.06-41.89v-7.23h21.96l27.28,32.34,27.02-32.34h21.96v7.23l-35.21,41.89,35.21,41.73v7.37h-21.96l-27.28-32.2-27.02,32.2h-21.96Z" style="fill:#ff6c26;"/></svg>