<?xml version="1.0" encoding="UTF-8"?><svg id="a" xmlns="http://www.w3.org/2000/svg" width="519.29mm" height="70mm" xmlns:xlink="http://www.w3.org/1999/xlink" viewBox="0 0 1472.01 198.43"><defs><style>.d{fill:none;}.d,.e,.f{stroke-width:0px;}.g{clip-path:url(#b);}.h{clip-path:url(#c);}.e{fill:#0f978e;}.f{fill:#ff6c26;}</style><clipPath id="b"><rect class="d" x="49.73" y="29.82" width="177" height="142"/></clipPath><clipPath id="c"><rect class="d" x="-1.27" y="29.82" width="177" height="142"/></clipPath></defs><g class="g"><path class="e" d="m216.03,54.22l-19.7-19.7-3-3c-1.1-1.1-2.6-1.8-4.2-1.8h-100.9c-1.6,0-3.1.6-4.2,1.8l-3,3-19.7,19.7-6.4,6.4c-2.2,2.2-2.3,5.7-.4,8l5.8,7,34.5,41.9c2.4,2.9,6.8,2.9,9.2,0l2.6-3.2c1.8-2.2,1.8-5.4,0-7.6l-30.5-37c-2-2.4-1.8-5.9.4-8l14.1-14.1c1.1-1.1,2.6-1.8,4.2-1.8h87.5c1.6,0,3.1.6,4.2,1.8l14.1,14.1c2.2,2.2,2.3,5.7.4,8l-57.8,70.2c-2.4,2.9-6.8,2.9-9.2,0l-2.6-3.2c-2.4-2.9-6.8-2.9-9.2,0l-2.6,3.2c-1.8,2.2-1.8,5.4,0,7.6l6.7,8.1,7.8,9.5c2.4,2.9,6.8,2.9,9.2,0l7.8-9.5,65.9-80,5.7-7c2-2.4,1.8-5.9-.4-8l-6.3-6.4"/></g><g class="h"><path class="f" d="m159.13,50.82h-6c-5.5,0-8.3,6.7-4.4,10.6h0c2.3,2.3,2.4,5.9.4,8.3l-57.2,69.4c-2.5,3-7.1,3-9.6,0L25.13,69.72c-2-2.5-1.9-6.1.4-8.3l13.8-13.8c1.2-1.2,2.7-1.8,4.4-1.8h15.7c1.6,0,3.2-.7,4.4-1.8l3.6-3.6c3.9-3.9,1.1-10.6-4.4-10.6h-26.7c-1.6,0-3.2.7-4.4,1.8l-3,3-19.8,19.8-6.4,6.4c-2.3,2.3-2.4,5.9-.4,8.3l5.7,6.9,66.5,80.7,7.8,9.4c2.5,3,7.1,3,9.6,0l7.8-9.4,66.5-80.7,5.7-7c2-2.5,1.9-6-.4-8.3l-8-8.1c-1.2-1.1-2.8-1.8-4.4-1.8Z"/></g><path class="e" d="m280.63,55.32h17.4v63.3h63.3v17.5h-80.6V55.32h-.1Z"/><path class="e" d="m367.83,55.42h17.5v80.6h-17.5V55.42Z"/><path class="e" d="m472.73,118.62h9.2v17.5h-73.2c-9.2,0-16.6-7.4-16.6-16.6v-47.5c0-9.2,7.4-16.6,16.6-16.6h47.4c9.2,0,16.7,7.4,16.7,16.6v46.6h-.1Zm-63.2,0h45.7v-45.7h-45.7v45.7Z"/><path class="e" d="m508.53,118.62h45.7v-63.2h17.6v64.1c0,9.2-7.5,16.6-16.6,16.6h-47.5c-9.2,0-16.6-7.4-16.6-16.6V55.42h17.4v63.2Z"/><path class="e" d="m584.23,55.42h17.5v80.6h-17.5V55.42Z"/><path class="e" d="m672.93,55.42c9.2,0,16.7,7.4,16.7,16.6v47.5c0,9.2-7.5,16.6-16.7,16.6h-64V55.42h64Zm-46.6,63.2h45.7v-45.7h-45.7v45.7Z"/><path class="e" d="m702.23,55.42h17.5v80.6h-17.5V55.42Z"/><path class="e" d="m805.63,55.42v17.5h-31.6v63.2h-17.5v-63.2h-31.6v-17.5h80.7Z"/><path class="e" d="m901.83,55.42l-37.4,50.6v30h-17.5v-30.1l-14.7-19.7c-7.1-9.4-16.4-22.2-22.6-30.8h20.7l25.3,31.8c8.2-10.3,17.1-21.5,25.2-31.8,0,0,21,0,21,0Z"/><path class="f" d="m982.13,87.12c0,1.9-.2,3.7-.8,5.2,2.2,2.8,3.9,6.7,3.9,10.5v16.7c0,9.2-7.5,16.6-16.7,16.6h-64V55.42h60.9c9.1,0,16.6,7.4,16.6,16.6v15.1h.1Zm-60.1-.7h42.6v-13.5h-42.6v13.5Zm0,32.2h45.7v-14.8h-45.7v14.8Z"/><path class="f" d="m1061.63,55.42c9.2,0,16.7,7.4,16.7,16.6v64.1h-17.6v-26h-45.7v26h-17.4v-64.1c0-9.2,7.4-16.6,16.6-16.6h47.4Zm-.9,37.2v-19.7h-45.7v19.7h45.7Z"/><path class="f" d="m1108.53,72.92v45.7h63.1v17.5h-63.8c-9.2,0-16.6-7.4-16.6-16.6v-47.5c0-9.2,7.4-16.6,16.6-16.6h63.8v17.5h-63.1Z"/><path class="f" d="m1261.13,55.42v6l-28.8,34.3c9.4,11.3,19.4,23.1,28.8,34.3v6h-18.1l-26.4-31.6h-15.8v31.6h-17.5V55.42h17.5v31.6h15.8c3.4-3.9,6.7-8,10.1-12l16.4-19.6h18Z"/><path class="f" d="m1272.53,55.42h17.5v80.6h-17.5V55.42Z"/><path class="f" d="m1360.13,55.42h17.6v80.6h-17.9l-45.4-54v54h-17.4V55.42h17.9l45.1,53.8v-53.8h.1Z"/><path class="f" d="m1470.93,79.62h-17.6v-6.7h-45.7v45.7h45.7v-12.1h-17.5v-17.5h35.1v30.5c0,9.2-7.5,16.6-16.7,16.6h-47.4c-9.2,0-16.6-7.4-16.6-16.6v-47.5c0-9.2,7.4-16.6,16.6-16.6h47.4c9.2,0,16.7,7.4,16.7,16.6v7.6Z"/></svg>