<?xml version="1.0" encoding="UTF-8"?><svg id="a" xmlns="http://www.w3.org/2000/svg" width="446.98mm" height="70mm" xmlns:xlink="http://www.w3.org/1999/xlink" viewBox="0 0 1267.04 198.43"><defs><style>.d{stroke-width:2.48px;}.d,.e{stroke:#0f978e;stroke-miterlimit:10;}.d,.e,.f{fill:#0f978e;}.g{fill:none;}.g,.f,.h{stroke-width:0px;}.e{stroke-width:.83px;}.i{clip-path:url(#b);}.j{clip-path:url(#c);}.h{fill:#ff6c26;}</style><clipPath id="b"><rect class="g" x="25.58" y="106.99" width="105.85" height="82.35"/></clipPath><clipPath id="c"><polygon class="g" points="47.55 9.09 156.74 9.91 156.74 123.26 47.55 123.26 47.55 9.09"/></clipPath></defs><g class="i"><path class="f" d="m126.19,111.33c-1.36-1.36-3.16-1.81-4.97-2.17-1.9-.45-3.8.18-5.15,1.54-15.19,15.19-23.5,35.34-23.5,56.77v1.81c0,1.81-1.45,3.25-3.25,3.25h-22.69c-1.81,0-3.25-1.45-3.25-3.25v-1.81c0-21.42-8.32-41.67-23.5-56.77-1.36-1.36-3.25-2.17-5.24-2.17s-3.8.81-5.24,2.17c-2.89,2.89-2.89,7.59,0,10.49,12.38,12.38,19.16,28.83,19.16,46.37v1.81c0,9.94,8.14,18.08,18.08,18.08h22.69c9.94,0,18.08-8.14,18.08-18.08v-1.81c0-17.54,6.78-33.99,19.16-46.37,2.89-2.89,2.53-6.96-.36-9.85Z"/></g><path class="f" d="m69.42,107.44c-6.51-4.34-9.4-2.08-10.58-.36-1.08,1.63-1.54,3.62-1.08,5.51.36,1.9,1.54,3.62,3.16,4.7,7.95,5.24,9.58,12.65,9.58,22.06v2.53c0,3.62,2.62,6.6,6.06,7.23l.09.09h1.27c4.07,0,7.41-3.34,7.41-7.41v-2.53c0-15.28-4.43-24.22-15.91-31.82Z"/><path class="e" d="m37.97,87.19c2.8,1.08,5.97-.36,6.96-3.16l.72-1.99c3.71-9.76,11.93-16.99,22.15-19.34,2.89-.72,4.7-3.62,4.07-6.51s-3.62-4.7-6.51-4.07c-13.74,3.16-24.86,12.93-29.83,26.12l-.72,1.99"/><path class="f" d="m39.87,88.82c-.81,0-1.54-.09-2.35-.45l.9-2.35c2.17.81,4.61-.27,5.42-2.44l.72-1.99c3.8-10.12,12.38-17.72,22.96-20.16,2.26-.54,3.62-2.8,3.16-5.06-.54-2.26-2.8-3.62-5.06-3.16-13.29,3.07-24.13,12.56-28.93,25.4l-.72,1.99-2.35-.9.72-1.99c5.06-13.56,16.54-23.59,30.64-26.94,3.62-.81,7.14,1.45,8.04,4.97.81,3.62-1.45,7.14-4.97,7.95-9.76,2.26-17.72,9.22-21.24,18.62l-.72,1.99c-.99,2.89-3.53,4.52-6.24,4.52Z"/><path class="d" d="m34.8,80.23c-1.08,2.8.36,5.97,3.16,6.96"/><path class="f" d="m96,98.4c-1.18,1.45-2.71,3.07-4.07,4.34-2.26,2.08-4.88,3.53-7.68,4.43-1.99.63-4.07.99-6.24.99-8.68,0-16.45-5.33-19.61-13.74-1.08-2.8-3.8-4.52-6.69-4.25-2.89.18-5.42,2.35-6.06,5.15-1.72,7.5-8.14,12.75-15.55,12.75-8.86,0-16-7.41-16-16.45,0-7.41,4.88-13.92,11.93-15.82,1.81-.45,3.34-1.72,4.16-3.43.81-1.72.9-3.71.27-5.42-.81-1.99-1.18-4.07-1.18-6.15,0-9.04,7.23-16.45,16-16.45,2.35,0,4.7.63,7.05,1.81,2.08,1.08,4.52.99,6.51-.27,2.98-1.81,3.16-5.24,3.16-5.6.09-1.45-.18-2.71-.9-3.8-.81-1.45-2.08-2.17-2.71-2.53-1.54-.63-3.07-1.27-4.7-1.72-.81-.27-1.72-.45-2.53-.63-1.9-.45-3.89-.63-5.88-.63-16.18,0-29.38,13.38-29.38,29.74,0,1.54.09,3.07.36,4.7-9.49,5.15-15.55,15.28-15.55,26.12,0,16.45,13.2,29.74,29.38,29.74,8.86,0,17.36-4.07,22.87-11.03,6.42,7.05,15.55,11.03,25.13,11.03,7.5,0,14.55-2.35,20.52-6.87.99-.72,1.99-1.54,2.98-2.44s1.9-1.9,2.71-2.98l-.99-.72-3.89-11.84c.18-.45.36-.9.54-1.36l-.54-.36-.36-.63"/><g class="j"><path class="h" d="m139.3,65.77c.27-1.63.45-3.25.45-4.88,0-16.18-13.02-29.38-28.93-29.38-1.72,0-3.34.18-5.06.45-3.62-12.38-14.91-20.97-27.75-20.97-14.55,0-24.77,7.68-27.48,20.61.72.09,1.27.27,1.81.36.45.09,1.18.27,1.99.54.63.18,1.18.36,1.54.45.27.09,1.18.45,1.81.72.45.18,2.89,1.27,3.89,3.71.27.54.36,1.08.36,1.36.09-1.08.63-9.4,7.59-12.84,3.43-2.26,6.87-2.53,8.5-2.44,4.16-.09,8.14,1.45,11.21,4.43,3.25,3.16,5.15,7.68,5.24,12.38,0,2.17,1.18,4.16,2.98,5.33,1.81,1.08,4.16,1.18,6.15.27,2.35-1.18,4.79-1.81,7.23-1.81,9.04,0,16.45,7.59,16.45,16.9,0,2.17-.45,4.25-1.27,6.33-.63,1.63-.54,3.53.18,5.06.81,1.63,2.26,2.8,3.98,3.25,7.23,1.99,12.2,8.68,12.2,16.18,0,9.31-7.41,16.81-16.45,16.81-7.68,0-14.28-5.42-16-13.11-.63-2.71-2.89-4.7-5.6-4.88h-.54c-2.62,0-4.61,1.63-5.51,4.61v1.18c0,.99-.09,1.99.27,3.43.72,3.25,2.08,6.33,4.07,9.04,5.42,7.59,14.1,12.11,23.41,12.11,16,0,29.02-13.2,29.02-29.38-.18-10.76-6.24-20.88-15.73-25.85Z"/></g><path class="f" d="m288.54,85.8c0,1.9-.2,3.7-.8,5.2,2.2,2.8,3.9,6.7,3.9,10.5v16.7c0,9.2-7.5,16.6-16.7,16.6h-64V54.1h60.9c9.1,0,16.6,7.4,16.6,16.6v15.1h.1Zm-60.1-.7h42.6v-13.5h-42.6v13.5Zm0,32.2h45.7v-14.8h-45.7v14.8Z"/><path class="f" d="m384.44,91.7c0,9.1-7.5,16.6-16.7,16.6h-.8c5.7,6.7,11.9,13.9,17.5,20.6v5.9h-17.9l-22.3-26.5-23.1.1c.2,0,.3.2.3.7,0,0-.2,0-.3-.1v25.9h-17.4V54.3h64c9.2,0,16.7,7.5,16.7,16.6v20.8Zm-63.3-.9h45.7v-19.2h-45.7v19.2Z"/><path class="f" d="m460.14,54.1c9.1,0,16.6,7.4,16.6,16.6v47.5c0,9.2-7.5,16.6-16.6,16.6h-47.5c-9.2,0-16.6-7.4-16.6-16.6v-47.5c0-9.2,7.4-16.6,16.6-16.6h47.5Zm-46.7,63.2h45.7v-45.7h-45.7v45.7Z"/><path class="f" d="m506.44,71.6v45.7h63.1v17.5h-63.9c-9.2,0-16.6-7.4-16.6-16.6v-47.5c0-9.2,7.4-16.6,16.6-16.6h63.8v17.5h-63Z"/><path class="f" d="m598.44,71.6v45.7h63.1v17.5h-63.9c-9.2,0-16.6-7.4-16.6-16.6v-47.5c0-9.2,7.4-16.6,16.6-16.6h63.8v17.5h-63Z"/><path class="f" d="m737.04,54.1c9.1,0,16.6,7.4,16.6,16.6v47.5c0,9.2-7.5,16.6-16.6,16.6h-47.5c-9.2,0-16.6-7.4-16.6-16.6v-47.5c0-9.2,7.4-16.6,16.6-16.6h47.5Zm-46.7,63.2h45.7v-45.7h-45.7v45.7Z"/><path class="f" d="m766.04,54h17.4v63.3h63.2v17.5h-80.6V54Z"/><path class="f" d="m853.24,54.1h17.5v80.6h-17.5V54.1Z"/><path class="h" d="m957.84,78.2h-17.6v-6.6h-45.7v14.1h46.7c9.1,0,16.6,7.4,16.6,16.6v15.9c0,9.2-7.5,16.6-16.6,16.6h-47.5c-9.2,0-16.6-7.4-16.6-16.6v-7.5h17.4v6.6h45.7v-14.1h-46.5c-9.2,0-16.6-7.4-16.6-16.6v-15.9c0-9.2,7.4-16.6,16.6-16.6h47.5c9.1,0,16.6,7.4,16.6,16.6v7.5Z"/><path class="h" d="m1087.14,54.1l-29.3,80.6h-13.3l-19-51.9-7.2,19.7c-3.8,10.4-8.2,22-11.8,32.1h-13.3l-29.3-80.6h18.5l17.6,48,2.8-7.5c4.8-13,10-27.4,14.8-40.5h16l17.7,48,2.8-7.5c4.8-13,10-27.4,14.8-40.5h18.2v.1Z"/><path class="h" d="m1156.84,54.1c9.2,0,16.7,7.4,16.7,16.6v64.1h-17.6v-26h-45.7v26h-17.4v-64.1c0-9.2,7.4-16.6,16.6-16.6h47.4Zm-.9,37.2v-19.7h-45.7v19.7h45.7Z"/><path class="h" d="m1250.34,54.3c9.2,0,16.7,7.5,16.7,16.6v20.8c0,9.1-7.5,16.6-16.7,16.6l-46.6.1c.2,0,.3.2.3.7,0,0-.2,0-.3-.1v25.9h-17.4V54.3h64Zm-46.6,36.5h45.7v-19.2h-45.7v19.2Z"/></svg>