<?xml version="1.0" encoding="UTF-8"?><svg id="a" xmlns="http://www.w3.org/2000/svg" width="254.46" height="255.02" viewBox="0 0 254.46 255.02"><g id="b"><path d="m247.76,111.49L142.96,6.7c-8.93-8.93-23.4-8.93-32.33,0l-46.71,46.71c-2.98,2.98-2.98,7.8,0,10.77l11.36,11.36c2.97,2.98,7.8,2.98,10.78,0l35.65-35.65c2.98-2.98,7.8-2.98,10.78,0l82.09,82.08c2.97,2.98,2.97,7.81,0,10.78l-82.09,82.09c-2.98,2.97-7.8,2.97-10.78,0l-35.65-35.65c-2.97-2.98-7.8-2.98-10.77,0l-11.36,11.36c-2.97,2.97-2.97,7.8,0,10.78l47.01,47.01c8.92,8.93,23.4,8.93,32.33,0l104.49-104.49c8.92-8.92,8.92-23.4,0-32.33h0v-.03Z" style="fill:#0f978e;"/></g><path id="c" d="m39.9,132.34c-2.85-2.96-2.84-7.64.03-10.59l10.96-11.28c2.93-3.02,2.86-7.85-.16-10.78l-11.29-10.95c-2.99-2.9-7.75-2.87-10.7.08l-22.05,22.05c-8.93,8.92-8.93,23.4,0,32.33l22.22,22.22c2.99,2.99,7.84,2.97,10.81-.03l10.98-11.1c2.91-2.94,2.94-7.66.08-10.64l-10.88-11.32h0Zm42.88-8.97l16.54-16.54c.25-.25.53-.48.83-.68.29-.2.61-.37.94-.51s.67-.24,1.02-.31.7-.11,1.06-.11.71.04,1.06.11.69.17,1.02.31c.33.14.65.3.94.51.3.2.57.43.83.68l16.54,16.54c.25.25.48.53.68.83s.36.61.5.94.24.67.31,1.02.11.7.11,1.06-.04.71-.11,1.06-.17.69-.31,1.02-.3.64-.5.94c-.2.29-.43.57-.68.83l-16.54,16.54c-.25.25-.53.48-.83.68-.29.2-.61.36-.94.5s-.67.24-1.02.31c-.35.07-.7.1-1.06.1s-.71-.04-1.06-.1c-.35-.07-.69-.18-1.02-.31-.33-.14-.65-.3-.94-.5-.3-.2-.57-.43-.83-.68l-16.54-16.54c-.25-.25-.48-.53-.68-.83s-.36-.61-.5-.94-.24-.67-.31-1.02c-.07-.35-.11-.71-.11-1.06s.04-.71.11-1.06.17-.69.31-1.02.3-.64.5-.94.43-.57.68-.83Z" style="fill:#ff6c26;"/></svg>