<?xml version="1.0" encoding="UTF-8"?><svg id="a" xmlns="http://www.w3.org/2000/svg" width="644.77" height="98.22" viewBox="0 0 644.77 98.22"><path id="b" d="m0,98.22V0h77.91c3.72,0,7.11.91,10.16,2.74,3.05,1.82,5.5,4.25,7.35,7.29,1.87,3.05,2.8,6.43,2.8,10.16v57.84c0,3.65-.93,7.01-2.8,10.1-1.86,3.09-4.31,5.55-7.35,7.37-3.05,1.82-6.43,2.72-10.16,2.72H0Zm21.4-21.4h55.43V21.4H21.4v55.43h0Zm92.39,21.4V0h90.44v21.4h-69.05v17.51h55.43v20.42h-55.43v17.51h69.05v21.4h-90.44v-.02Zm124.25,0c-3.65,0-7.01-.91-10.1-2.73-3.09-1.83-5.55-4.29-7.37-7.39-1.82-3.09-2.72-6.46-2.72-10.11V20.14c0-3.71.9-7.09,2.71-10.13,1.82-3.04,4.27-5.46,7.35-7.27C230.99.92,234.34,0,237.98,0h57.76C299.48,0,302.86.9,305.91,2.71c3.04,1.8,5.49,4.2,7.35,7.22,1.87,3.02,2.8,6.37,2.8,10.05v9.19h-21.4v-7.78h-55.43v55.43h55.43v-14.59h-21.4v-21.4h42.79v37.15c0,3.65-.93,7.02-2.8,10.11-1.86,3.09-4.31,5.55-7.35,7.39-3.05,1.82-6.44,2.73-10.18,2.73h-57.69,0Zm93.59,0V0h90.44v21.4h-69.05v17.51h55.43v20.42h-55.43v17.51h69.05v21.4h-90.44v-.02Zm103.09,0V0h21.88l54.95,65.48V0h21.4v98.22h-20.95l-55.88-65.76v65.76h-21.4Z" style="fill:#225271;"/><g id="c"><path d="m546.55,98.22v-7.23l35.06-41.87-35.06-41.89V0h21.96l27.28,32.34L622.81,0h21.96v7.23l-35.21,41.89,35.21,41.73v7.37h-21.96l-27.28-32.2-27.02,32.2h-21.96,0Z" style="fill:#ff6c26;"/></g></svg>