<?xml version="1.0" encoding="UTF-8"?><svg id="a" xmlns="http://www.w3.org/2000/svg" width="352.69mm" height="70mm" viewBox="0 0 999.74 198.43"><defs><style>.b{fill:#225271;}.b,.c{stroke-width:0px;}.c{fill:#ff6c26;}</style></defs><path class="b" d="m114.19,130.63l-3.9,4.2c-13.1,14.1-37.5,40.4-50.6,45.8-5.2,2.1-10.6,3.2-16,3.2-10.8,0-21.4-4.2-29.4-12.2-16.2-16.3-16.2-42.7,0-59l35.1-33.8c7.8-7.8,18.2-12.2,29.4-12.2s21.6,4.3,29.5,12.2c3.4,3.5,3.4,9.1,0,12.5-1.7,1.7-3.9,2.6-6.2,2.6s-4.6-.9-6.3-2.6c-4.5-4.5-10.5-7-16.9-7s-12.4,2.5-16.9,7l-35.1,33.9c-9.3,9.3-9.3,24.6,0,33.9,6.9,6.9,17.1,8.9,26.1,5.2,7.5-3.1,22.5-19.1,31.4-28.7l2.7-2.8.8.1c7.1,1.4,13.7,2.3,20.9-.3l5.4-2h0Z"/><path class="c" d="m160.29,85.63l-32.3,32.4c-7.8,7.9-18.3,12.2-29.4,12.2s-21.6-4.3-29.5-12.2c-3.4-3.5-3.4-9.1,0-12.5,1.7-1.7,3.9-2.6,6.2-2.6s4.6.9,6.2,2.6c4.5,4.5,10.5,7,16.9,7s12.4-2.5,16.9-7l32.3-32.4c9.3-9.4,9.3-24.6,0-33.9-6.9-6.9-17.1-8.9-26.1-5.2-7.4,3.1-21.4,18.1-29.8,27l-2.9,3.1-.8-.1c-7.5-1.4-15.2-.8-22.4,1.7l-5.4,1.9,3.9-4.2c18.2-19.6,38.5-40.8,50.6-45.8,15.6-6.5,33.5-2.9,45.4,9,16.4,16.2,16.5,42.7.2,59h0Z"/><path class="b" d="m233.29,53.63h17.4v63.3h63.2v17.5h-80.6V53.63Z"/><path class="b" d="m320.49,53.73h17.5v80.6h-17.5V53.73Z"/><path class="b" d="m408.09,53.73h17.6v80.6h-17.9l-45.4-54v54h-17.4V53.73h17.9l45.1,53.8v-53.8h.1Z"/><path class="b" d="m516.19,53.73v6l-28.8,34.4c9.4,11.3,19.4,23.1,28.8,34.3v6h-18.1l-26.4-31.6h-15.8v31.6h-17.5V53.73h17.5v31.6h15.8c3.4-3.9,6.7-8,10.1-12l16.4-19.6h18Z"/><path class="c" d="m605.29,85.43c0,1.9-.2,3.7-.8,5.2,2.2,2.8,3.9,6.7,3.9,10.5v16.7c0,9.2-7.5,16.6-16.7,16.6h-64V53.73h60.9c9.1,0,16.6,7.4,16.6,16.6v15.1h.1Zm-60.1-.7h42.6v-13.5h-42.6v13.5Zm0,32.2h45.7v-14.8h-45.7v14.8Z"/><path class="c" d="m701.19,91.33c0,9.1-7.5,16.6-16.7,16.6h-.8c5.7,6.7,11.9,13.9,17.5,20.6v5.9h-17.9l-22.3-26.5-23.1.1c.2,0,.3.2.3.7,0,0-.2,0-.3-.1v25.9h-17.4V53.93h64c9.2,0,16.7,7.5,16.7,16.6v20.8Zm-63.3-.9h45.7v-19.2h-45.7v19.2Z"/><path class="c" d="m713.19,53.73h17.5v80.6h-17.5V53.73Z"/><path class="c" d="m801.89,53.73c9.2,0,16.7,7.4,16.7,16.6v47.5c0,9.2-7.5,16.6-16.7,16.6h-64V53.73h64Zm-46.6,63.2h45.7v-45.7h-45.7v45.7h0Z"/><path class="c" d="m911.79,77.93h-17.6v-6.7h-45.7v45.7h45.7v-12.1h-17.5v-17.5h35.1v30.5c0,9.2-7.5,16.6-16.7,16.6h-47.4c-9.2,0-16.6-7.4-16.6-16.6v-47.5c0-9.2,7.4-16.6,16.6-16.6h47.4c9.2,0,16.7,7.4,16.7,16.6v7.6Z"/><path class="c" d="m998.79,71.23h-56.9v14.1h45.8v17.5h-45.8v14.1h56.9v17.5h-74.5V53.73h74.5v17.5Z"/></svg>